<?xml version="1.0" standalone="no"?>
<!DOCTYPE svg PUBLIC "-//W3C//DTD SVG 20010904//EN"
 "http://www.w3.org/TR/2001/REC-SVG-20010904/DTD/svg10.dtd">
<svg version="1.0" xmlns="http://www.w3.org/2000/svg"
 width="700.000000pt" height="700.000000pt" viewBox="0 0 700.000000 700.000000"
 preserveAspectRatio="xMidYMid meet">
<metadata>
Created by potrace 1.11, written by Peter Selinger 2001-2013
</metadata>
<g transform="translate(0.000000,700.000000) scale(0.100000,-0.100000)"
fill="#000000" stroke="none">
<path d="M2880 6435 c-338 -151 -625 -279 -637 -285 -13 -5 -33 -14 -45 -19
-13 -6 -52 -23 -88 -39 -36 -17 -148 -67 -250 -112 -102 -44 -198 -87 -215
-95 -108 -49 -375 -167 -510 -227 -226 -99 -249 -110 -255 -119 -7 -11 -4
-1931 3 -2004 4 -33 9 -87 12 -120 4 -33 11 -89 16 -125 6 -36 12 -79 14 -95
2 -17 11 -63 19 -102 9 -40 18 -85 21 -101 19 -109 115 -408 192 -597 207
-510 577 -1031 973 -1372 24 -21 51 -45 60 -53 36 -35 201 -161 285 -217 287
-193 617 -349 917 -432 l106 -29 69 18 c418 110 810 313 1188 614 114 91 420
395 510 506 308 381 526 778 671 1217 40 120 67 211 79 263 51 225 62 284 80
430 3 30 8 66 10 80 15 104 19 312 19 1157 l1 963 -40 19 c-22 10 -202 91
-400 179 -198 88 -385 171 -415 185 -30 14 -127 56 -215 95 -88 38 -191 84
-230 102 -38 17 -83 38 -100 45 -16 7 -52 23 -79 35 -27 12 -147 65 -265 117
-119 52 -238 106 -266 118 -80 37 -617 275 -618 274 -1 0 -279 -124 -617 -274z
m1020 -541 c217 -96 423 -189 458 -205 35 -16 65 -29 67 -29 3 0 35 -14 72
-31 55 -25 728 -325 838 -374 17 -7 65 -29 108 -49 44 -20 83 -36 88 -36 5 0
9 -30 9 -67 2 -384 -1 -1517 -4 -1549 -5 -51 -16 -157 -22 -204 -31 -255 -150
-636 -285 -911 -84 -171 -246 -440 -326 -539 -131 -165 -209 -255 -299 -345
-141 -142 -169 -166 -289 -259 -190 -146 -228 -170 -440 -275 -77 -38 -192
-87 -256 -109 l-116 -39 -116 37 c-484 160 -980 551 -1336 1055 -123 174 -271
439 -354 635 -35 85 -123 334 -131 374 -3 12 -12 46 -20 78 -8 31 -17 67 -20
80 -19 94 -35 181 -41 223 -3 28 -8 64 -10 80 -13 103 -16 277 -16 956 -1 758
1 789 31 789 5 0 43 16 84 35 42 19 78 35 81 35 2 0 48 20 101 45 53 25 97 45
99 45 2 0 42 18 89 40 47 22 88 40 90 40 2 0 39 16 83 36 93 42 123 56 183 82
25 11 70 31 100 45 30 14 154 69 275 122 121 53 247 109 280 124 33 15 83 38
110 50 28 12 133 60 235 106 102 46 190 84 195 84 6 1 188 -78 405 -175z"/>
<path d="M3871 3824 c-524 -525 -955 -953 -957 -952 -1 2 -171 171 -377 376
l-375 372 -207 -206 -206 -206 293 -292 c161 -161 424 -423 584 -583 l291
-291 1166 1166 1167 1167 -201 203 c-111 111 -207 202 -213 201 -6 0 -440
-430 -965 -955z"/>
</g>
</svg>
