<?xml version="1.0" encoding="UTF-8" standalone="no"?>
<svg
   xmlns:dc="http://purl.org/dc/elements/1.1/"
   xmlns:cc="http://creativecommons.org/ns#"
   xmlns:rdf="http://www.w3.org/1999/02/22-rdf-syntax-ns#"
   xmlns:svg="http://www.w3.org/2000/svg"
   xmlns="http://www.w3.org/2000/svg"
   xmlns:sodipodi="http://sodipodi.sourceforge.net/DTD/sodipodi-0.dtd"
   xmlns:inkscape="http://www.inkscape.org/namespaces/inkscape"
   width="512.0px"
   height="512.0px"
   viewBox="0 0 512.0 512.0"
   version="1.1"
   id="SVGRoot"
   sodipodi:docname="circle.svg"
   inkscape:version="1.0.2 (e86c870879, 2021-01-15)">
  <defs
     id="defs7744">
    <inkscape:path-effect
       effect="taper_stroke"
       id="path-effect866"
       is_visible="true"
       lpeversion="1"
       stroke_width="12"
       attach_start="0.2"
       end_offset="0.2"
       smoothing="0.5"
       jointype="extrapolated"
       miter_limit="100" />
    <inkscape:path-effect
       effect="skeletal"
       id="path-effect1085"
       is_visible="true"
       lpeversion="1"
       pattern="m 0.63591816,-9.5603298 c 0,-2.8355672 2.27263054,-5.1368942 5.07283574,-5.1368942 2.8002053,0 5.0728351,2.301327 5.0728351,5.1368942 0,2.8355657 -2.2726298,5.1368946 -5.0728351,5.1368946 -2.8002052,0 -5.07283574,-2.3013289 -5.07283574,-5.1368946 z"
       copytype="single_stretched"
       prop_scale="1"
       scale_y_rel="false"
       spacing="0"
       normal_offset="0"
       tang_offset="0"
       prop_units="false"
       vertical_pattern="false"
       hide_knot="false"
       fuse_tolerance="0" />
    <inkscape:path-effect
       effect="spiro"
       id="path-effect1083"
       is_visible="true"
       lpeversion="1" />
  </defs>
  <sodipodi:namedview
     id="base"
     pagecolor="#ffffff"
     bordercolor="#666666"
     borderopacity="1.0"
     inkscape:pageopacity="0.0"
     inkscape:pageshadow="2"
     inkscape:zoom="1.4142136"
     inkscape:cx="236.13308"
     inkscape:cy="226.10028"
     inkscape:document-units="px"
     inkscape:current-layer="layer1"
     inkscape:document-rotation="0"
     showgrid="false"
     inkscape:window-width="1262"
     inkscape:window-height="876"
     inkscape:window-x="5"
     inkscape:window-y="117"
     inkscape:window-maximized="0"
     showguides="false">
    <inkscape:grid
       type="xygrid"
       id="grid8314" />
  </sodipodi:namedview>
  <metadata
     id="metadata7747">
    <rdf:RDF>
      <cc:Work
         rdf:about="">
        <dc:format>image/svg+xml</dc:format>
        <dc:type
           rdf:resource="http://purl.org/dc/dcmitype/StillImage" />
        <dc:title />
      </cc:Work>
    </rdf:RDF>
  </metadata>
  <g
     inkscape:label="Layer 1"
     inkscape:groupmode="layer"
     id="layer1">
    <circle
       style="opacity:0.995712;fill:none;stroke:#000000;stroke-width:5;stroke-linecap:round;stroke-linejoin:round;stroke-miterlimit:4;stroke-dasharray:none;stroke-opacity:1"
       id="path841"
       cx="115.00951"
       cy="196.34251"
       r="64" />
    <circle
       style="opacity:0.995712;fill:none;stroke:#f9aa33;stroke-width:16.2529;stroke-linecap:round;stroke-linejoin:round"
       id="path8345"
       cx="113.20259"
       cy="218.38483"
       rx="48.226345"
       ry="47.130718" />
    <circle
       style="opacity:0.995712;fill:none;stroke:#f9aa33;stroke-width:16.2529;stroke-linecap:round;stroke-linejoin:round"
       id="path8345-0"
       cx="121.3091"
       cy="192.65396"
       r="0" />
    <circle
       style="opacity:0.995712;fill:none;stroke:#000000;stroke-width:5;stroke-linecap:round;stroke-linejoin:round;stroke-miterlimit:4;stroke-dasharray:none;stroke-opacity:1"
       id="path841-3"
       cx="246.31731"
       cy="196.34251"
       r="64" />
    <circle
       style="opacity:0.995712;fill:none;stroke:#f9aa33;stroke-width:20;stroke-linecap:round;stroke-linejoin:round;stroke-miterlimit:4;stroke-dasharray:none"
       id="path841-6"
       cx="373.62512"
       cy="196.34251"
       r="64" />
    <path
       style="opacity:0.995712;fill:#f9aa33;stroke:none;stroke-width:12;stroke-linecap:round;stroke-linejoin:round;stroke-miterlimit:4;stroke-dasharray:none;fill-rule:nonzero"
       id="path841-3-7"
       sodipodi:type="arc"
       sodipodi:cx="244.59134"
       sodipodi:cy="195.66034"
       sodipodi:rx="64"
       sodipodi:ry="64"
       sodipodi:start="3.1600415"
       sodipodi:end="0.0026742729"
       sodipodi:open="true"
       sodipodi:arc-type="arc"
       d="m 178.39179,172.90909 c -1.82614,5.31504 -1.39954,10.84469 -0.3479,14.98756 1.03759,4.08748 2.55834,6.58303 2.55834,6.58303 0,0 1.49816,-2.51297 3.40103,-5.8866 1.80056,-3.19226 4.3533,-7.75893 5.73702,-11.78378 8.11746,-23.61944 30.4896,-39.4095 55.46362,-39.14573 24.97401,0.26378 47.00766,16.52285 54.62442,40.30848 1.2984,4.05318 3.75412,8.67275 5.48686,11.90232 1.83119,3.41307 3.27593,5.95712 3.27593,5.95712 0,0 1.57313,-2.46287 2.69681,-6.52752 1.13891,-4.11974 1.68222,-9.63914 -0.0313,-14.99157 -9.20403,-28.74234 -35.74764,-48.32941 -65.92603,-48.64816 -30.17838,-0.31874 -57.12978,18.70332 -66.93884,47.24485 z"
       inkscape:path-effect="#path-effect866" />
    <path
       style="fill:#f9aa33;fill-opacity:1;fill-rule:nonzero;stroke:#f9aa33;stroke-width:0.428993;stroke-linecap:butt;stroke-linejoin:round;stroke-miterlimit:4;stroke-dasharray:none;stroke-opacity:1"
       d="m 97.994486,255.50351 c 0.274534,-0.87954 3.616944,-0.57691 9.183204,-0.44045 5.52653,0.13549 13.45956,0.002 22.33065,-2.399 8.68923,-2.34722 18.16787,-6.88139 26.40813,-14.35167 0.83715,-0.758 1.6591,-1.54457 2.46408,-2.3591 6.75905,-6.83922 11.45842,-14.75194 14.34602,-22.45782 4.6642,-12.42617 4.50718,-23.6916 4.20271,-30.48638 -0.20738,-4.62918 -0.3887,-7.38517 0.40344,-7.64114 0.79214,-0.25598 2.49791,2.04267 4.13754,6.74206 2.39518,6.86979 4.51899,19.52109 0.10476,34.33482 -2.74164,9.18482 -7.90869,18.65579 -15.88776,26.72952 -0.94812,0.95937 -1.92061,1.88305 -2.91501,2.77027 -9.82501,8.75695 -21.17084,13.47506 -31.40373,15.25189 -10.43946,1.80792 -19.26291,0.54362 -24.99492,-1.12899 -5.77979,-1.68656 -8.653648,-3.68447 -8.379114,-4.56401 z"
       id="path1081"
       inkscape:path-effect="#path-effect1083;#path-effect1085"
       inkscape:original-d="m 97.994486,255.50351 c -37.878187,16.43704 61.487134,-49.31419 81.205284,-72.94396 26.85618,-32.18383 3.54495,3.76814 -1.86705,-7.1916"
       sodipodi:nodetypes="csc" />
  </g>
</svg>
